<svg xmlns="http://www.w3.org/2000/svg" viewBox="0 0 96 96"><defs><linearGradient id="color" x1="0" y1="0" x2=".7" y2="1"><stop stop-color="#ffab6a"/><stop offset="1" stop-color="#ec678e"/></linearGradient><linearGradient id="glass" x1="0" y1="0" x2=".6" y2="1"><stop stop-color="#ffffff" stop-opacity=".45"/><stop offset=".5" stop-color="#f3f7ff" stop-opacity=".23"/><stop offset="1" stop-color="#c3cfd9" stop-opacity=".18"/></linearGradient><linearGradient id="edge" x1="0" y1="0" x2=".5" y2="1"><stop stop-color="#fff" stop-opacity=".92"/><stop offset="1" stop-color="#c2c8ce" stop-opacity=".48"/></linearGradient><radialGradient id="glow"><stop stop-color="#ffab6a" stop-opacity=".28"/><stop offset="1" stop-color="#ec678e" stop-opacity="0"/></radialGradient><filter id="shadow" x="-40%" y="-40%" width="180%" height="180%"><feDropShadow dy="4" stdDeviation="3" flood-opacity=".22"/></filter><filter id="haze"><feGaussianBlur stdDeviation="4"/></filter></defs><ellipse cx="49" cy="50" rx="45" ry="44" fill="url(#glow)"/><g fill="url(#color)"><circle cx="63" cy="30" r="13"/><path d="M39 77V63q0-23 24-23t23 23v14Z"/></g><g fill="url(#color)" opacity=".18" filter="url(#haze)" transform="translate(-8 9)"><circle cx="63" cy="30" r="13"/><path d="M39 77V63q0-23 24-23t23 23v14Z"/></g><g fill="url(#glass)" stroke="url(#edge)" stroke-width="2.5" stroke-linejoin="round" stroke-linecap="round" filter="url(#shadow)"><circle cx="35" cy="39" r="14"/><path d="M11 79V68q0-24 24-24t24 24v11Z"/></g></svg>
