<svg xmlns="http://www.w3.org/2000/svg" viewBox="0 0 96 96"><defs><linearGradient id="tile" x2=".3" y2="1"><stop stop-color="#ddba70"/><stop offset="1" stop-color="#aa7432"/></linearGradient><linearGradient id="gloss" x2="0" y2="1"><stop stop-color="#fff" stop-opacity=".45"/><stop offset="1" stop-color="#fff" stop-opacity="0"/></linearGradient><filter id="shadow" x="-30%" y="-30%" width="160%" height="170%"><feDropShadow dx="0" dy="3" stdDeviation="1.8" flood-color="#283055" flood-opacity=".23"/></filter></defs><rect x="4" y="4" width="88" height="88" rx="22" fill="url(#tile)" stroke="#fff" stroke-opacity=".5" stroke-width="1.5"/><path d="M26 6H70Q89 6 90 26V45Q50 57 6 35V26Q6 6 26 6Z" fill="url(#gloss)"/><ellipse cx="48" cy="83" rx="26" ry="4" fill="#23396a" opacity=".12"/><g filter="url(#shadow)"><path d="M25 35Q48 39 72 35V52Q73 72 48 84Q24 72 25 52Z" fill="#fff0be" stroke="#a1854c" stroke-width="3"/><path d="M30 36L24 16 38 24 48 10 58 24 73 16 67 36Z" fill="#ffcd63" stroke="#a1854c" stroke-width="2.5" stroke-linejoin="round"/><circle cx="48" cy="25" r="4" fill="#ff94ac"/><path d="M33 69Q48 80 64 68" stroke="#ffe1a0" stroke-width="4" fill="none"/></g><path d="M13 27Q13 14 27 13" stroke="white" opacity=".6" stroke-width="2.5" stroke-linecap="round" fill="none"/></svg>