<svg xmlns="http://www.w3.org/2000/svg" viewBox="0 0 96 96"><defs><linearGradient id="color" x1="0" y1="0" x2=".7" y2="1"><stop stop-color="#ffd660"/><stop offset="1" stop-color="#e779cb"/></linearGradient><linearGradient id="glass" x1="0" y1="0" x2=".6" y2="1"><stop stop-color="#ffffff" stop-opacity=".45"/><stop offset=".5" stop-color="#f3f7ff" stop-opacity=".23"/><stop offset="1" stop-color="#c3cfd9" stop-opacity=".18"/></linearGradient><linearGradient id="edge" x1="0" y1="0" x2=".5" y2="1"><stop stop-color="#fff" stop-opacity=".92"/><stop offset="1" stop-color="#c2c8ce" stop-opacity=".48"/></linearGradient><radialGradient id="glow"><stop stop-color="#ffd660" stop-opacity=".28"/><stop offset="1" stop-color="#e779cb" stop-opacity="0"/></radialGradient><filter id="shadow" x="-40%" y="-40%" width="180%" height="180%"><feDropShadow dy="4" stdDeviation="3" flood-opacity=".22"/></filter><filter id="haze"><feGaussianBlur stdDeviation="4"/></filter></defs><ellipse cx="49" cy="50" rx="45" ry="44" fill="url(#glow)"/><g fill="url(#color)"><path d="M27 16h50v46q0 10-12 11t-12-9q0-10 14-11V28H39v34q0 10-12 11t-12-9q0-10 12-11Z"/></g><g fill="url(#color)" opacity=".18" filter="url(#haze)" transform="translate(-8 9)"><path d="M27 16h50v46q0 10-12 11t-12-9q0-10 14-11V28H39v34q0 10-12 11t-12-9q0-10 12-11Z"/></g><g fill="url(#glass)" stroke="url(#edge)" stroke-width="2.5" stroke-linejoin="round" stroke-linecap="round" filter="url(#shadow)"><rect x="19" y="34" width="55" height="48" rx="10"/><path d="M30 47h26M30 57h20M30 67h14" fill="none" stroke-width="4"/><path d="m60 58 10 7-10 7Z" fill="#fff8" stroke="none"/></g></svg>
