<svg xmlns="http://www.w3.org/2000/svg" viewBox="0 0 96 96"><defs><linearGradient id="tile" x2=".3" y2="1"><stop stop-color="#859cce"/><stop offset="1" stop-color="#455d9b"/></linearGradient><linearGradient id="gloss" x2="0" y2="1"><stop stop-color="#fff" stop-opacity=".45"/><stop offset="1" stop-color="#fff" stop-opacity="0"/></linearGradient><filter id="shadow" x="-30%" y="-30%" width="160%" height="170%"><feDropShadow dx="0" dy="3" stdDeviation="1.8" flood-color="#283055" flood-opacity=".23"/></filter></defs><rect x="4" y="4" width="88" height="88" rx="22" fill="url(#tile)" stroke="#fff" stroke-opacity=".5" stroke-width="1.5"/><path d="M26 6H70Q89 6 90 26V45Q50 57 6 35V26Q6 6 26 6Z" fill="url(#gloss)"/><ellipse cx="48" cy="83" rx="26" ry="4" fill="#23396a" opacity=".12"/><g filter="url(#shadow)"><rect x="19" y="22" width="58" height="43" rx="6" fill="#e0e9ff" stroke="#4d6caa" stroke-width="3"/><rect x="25" y="28" width="46" height="30" rx="3" fill="#9ecbeb"/><path d="M18 65H78L86 76Q86 81 78 81H18Q10 81 10 76Z" fill="#edf1fd" stroke="#4d6caa" stroke-width="3"/><path d="M39 69H58L61 74H35Z" fill="#bdcce9"/><path d="M61 43L80 59 70 61 73 71 68 73 64 63 57 69Z" fill="#fff3b7" stroke="#9d8d69" stroke-width="2"/></g><path d="M13 27Q13 14 27 13" stroke="white" opacity=".6" stroke-width="2.5" stroke-linecap="round" fill="none"/></svg>