<svg xmlns="http://www.w3.org/2000/svg" viewBox="0 0 96 96"><defs><linearGradient id="tile" x2=".3" y2="1"><stop stop-color="#8b9aae"/><stop offset="1" stop-color="#455670"/></linearGradient><linearGradient id="gloss" x2="0" y2="1"><stop stop-color="#fff" stop-opacity=".45"/><stop offset="1" stop-color="#fff" stop-opacity="0"/></linearGradient><filter id="shadow" x="-30%" y="-30%" width="160%" height="170%"><feDropShadow dx="0" dy="3" stdDeviation="1.8" flood-color="#283055" flood-opacity=".23"/></filter></defs><rect x="4" y="4" width="88" height="88" rx="22" fill="url(#tile)" stroke="#fff" stroke-opacity=".5" stroke-width="1.5"/><path d="M26 6H70Q89 6 90 26V45Q50 57 6 35V26Q6 6 26 6Z" fill="url(#gloss)"/><ellipse cx="48" cy="83" rx="26" ry="4" fill="#23396a" opacity=".12"/><g filter="url(#shadow)"><path d="M39 19H57L60 29 68 33 77 32 83 48 75 55 73 65 76 72 63 82 55 75H44L36 82 23 72 26 63 23 55 15 48 21 32 31 32 36 29Z" fill="#e6edf9" stroke="#637493" stroke-width="3" stroke-linejoin="round"/><circle cx="49" cy="49" r="20" fill="#aab9d6" stroke="#637493" stroke-width="2.5"/><path d="M60 59L76 76Q80 81 77 84Q74 87 69 82L54 65" fill="#fff0be" stroke="#aa9363" stroke-width="2.5"/></g><path d="M13 27Q13 14 27 13" stroke="white" opacity=".6" stroke-width="2.5" stroke-linecap="round" fill="none"/></svg>