<svg xmlns="http://www.w3.org/2000/svg" viewBox="0 0 96 96"><defs><linearGradient id="tile" x2=".3" y2="1"><stop stop-color="#f0c06c"/><stop offset="1" stop-color="#c88633"/></linearGradient><linearGradient id="gloss" x2="0" y2="1"><stop stop-color="#fff" stop-opacity=".45"/><stop offset="1" stop-color="#fff" stop-opacity="0"/></linearGradient><filter id="shadow" x="-30%" y="-30%" width="160%" height="170%"><feDropShadow dx="0" dy="3" stdDeviation="1.8" flood-color="#283055" flood-opacity=".23"/></filter></defs><rect x="4" y="4" width="88" height="88" rx="22" fill="url(#tile)" stroke="#fff" stroke-opacity=".5" stroke-width="1.5"/><path d="M26 6H70Q89 6 90 26V45Q50 57 6 35V26Q6 6 26 6Z" fill="url(#gloss)"/><ellipse cx="48" cy="83" rx="26" ry="4" fill="#23396a" opacity=".12"/><g filter="url(#shadow)"><g stroke="#fff5c6" stroke-width="5" stroke-linecap="round"><path d="M52 15V9M72 23L77 17M79 40H86M30 23L25 18M31 58L25 63"/></g><circle cx="53" cy="39" r="20" fill="#ffdd77" stroke="#cc964b" stroke-width="2"/><path d="M16 68Q13 54 26 51Q30 35 45 44Q52 44 57 53Q74 50 77 65Q78 75 66 76H27Q17 75 16 68Z" fill="#fbfcff" stroke="#9aa6bf" stroke-width="2.5"/></g><path d="M13 27Q13 14 27 13" stroke="white" opacity=".6" stroke-width="2.5" stroke-linecap="round" fill="none"/></svg>